<?xml version="1.0" encoding="UTF-8" standalone="no"?>
<!DOCTYPE svg PUBLIC "-//W3C//DTD SVG 1.1//EN" "http://www.w3.org/Graphics/SVG/1.1/DTD/svg11.dtd">
<svg width="100%" height="100%" viewBox="0 0 20 19" xmlns="http://www.w3.org/2000/svg">
    <defs>
        <!-- Clip paths for different fill levels -->
        <clipPath id="clip-100"><rect x="0" y="0" width="100%" height="100%" /></clipPath>
        <clipPath id="clip-75"><rect x="0" y="0" width="75%" height="100%" /></clipPath>
        <clipPath id="clip-50"><rect x="0" y="0" width="50%" height="100%" /></clipPath>
        <clipPath id="clip-25"><rect x="0" y="0" width="25%" height="100%" /></clipPath>
    </defs>
    <path class="reviews-io-bg-star"
          d="M10,0 L12.4,6.1 L19.5,6.7 L13.8,11.1 L15.8,18.3 L10,14.5 L4.2,18.3 L6.2,11.1 L0.5,6.7 L7.6,6.1 L10,0 Z"
          fill="#ccc" />
    <path class="reviews-io-star"
          d="M10,0 L12.4,6.1 L19.5,6.7 L13.8,11.1 L15.8,18.3 L10,14.5 L4.2,18.3 L6.2,11.1 L0.5,6.7 L7.6,6.1 L10,0 Z"
          clip-path="url(#clip-50)" />
</svg>