<?xml version="1.0" encoding="UTF-8" standalone="no"?>
<!DOCTYPE svg PUBLIC "-//W3C//DTD SVG 1.1//EN" "http://www.w3.org/Graphics/SVG/1.1/DTD/svg11.dtd">
<svg width="100%" height="100%" viewBox="0 0 20 19" xmlns="http://www.w3.org/2000/svg">
    <defs>
        <!-- Clip paths for different fill levels -->
        <clipPath id="clip-100"><rect x="0" y="0" width="100%" height="100%" /></clipPath>
        <clipPath id="clip-75"><rect x="0" y="0" width="75%" height="100%" /></clipPath>
        <clipPath id="clip-50"><rect x="0" y="0" width="50%" height="100%" /></clipPath>
        <clipPath id="clip-25"><rect x="0" y="0" width="25%" height="100%" /></clipPath>
    </defs>
    <path class="reviews-io-bg-star" d="M10,15.27L16.18,19L14.54,11.97L20,7.24L12.81,6.63L10,0L7.19,6.63L0,7.24L5.46,11.97L3.82,19L10,15.27Z"
          fill="#ccc" />
    <path class="reviews-io-star" d="M10,15.27L16.18,19L14.54,11.97L20,7.24L12.81,6.63L10,0L7.19,6.63L0,7.24L5.46,11.97L3.82,19L10,15.27Z"
          clip-path="url(#clip-75)" />
</svg>